HIERARCHY
ROOT Hips
{
	OFFSET 0.000000 0.000000 0.000000
	CHANNELS 6 Xposition Yposition Zposition Zrotation Yrotation Xrotation 
	JOINT LowerBack
	{
		OFFSET 0.000000 0.000000 0.000000
		CHANNELS 3 Zrotation Yrotation Xrotation
		JOINT Spine
		{
			OFFSET 0.028270 2.035590 -0.193380
			CHANNELS 3 Zrotation Yrotation Xrotation
			JOINT Spine1
			{
				OFFSET 0.056720 2.048850 -0.042750
				CHANNELS 3 Zrotation Yrotation Xrotation
				JOINT Neck
				{
					OFFSET 0.000000 0.000000 0.000000
					CHANNELS 3 Zrotation Yrotation Xrotation
					JOINT Neck1
					{
						OFFSET -0.054170 1.746240 0.172020
						CHANNELS 3 Zrotation Yrotation Xrotation
						JOINT Head
						{
							OFFSET 0.104070 1.761360 -0.123970
							CHANNELS 3 Zrotation Yrotation Xrotation
							End Site
							{
								OFFSET 0.000000 0.000000 0.000000
							}
						}
					}
				}
				JOINT LeftShoulder
				{
					OFFSET 0.000000 0.000000 0.000000
					CHANNELS 3 Zrotation Yrotation Xrotation
					JOINT LeftArm
					{
						OFFSET 3.362410 1.200890 -0.311210
						CHANNELS 3 Zrotation Yrotation Xrotation
						JOINT LeftForeArm
						{
							OFFSET 4.983000 -0.000000 -0.000000
							CHANNELS 3 Zrotation Yrotation Xrotation
							JOINT LeftHand
							{
								OFFSET 3.483560 -0.000000 -0.000000
								CHANNELS 3 Zrotation Yrotation Xrotation
								JOINT LeftFingerBase
								{
									OFFSET 0.000000 0.000000 0.000000
									CHANNELS 3 Zrotation Yrotation Xrotation
									JOINT LeftHandIndex1
									{
										OFFSET 0.715260 -0.000000 -0.000000
										CHANNELS 3 Zrotation Yrotation Xrotation
										End Site
										{
											OFFSET 0.000000 0.000000 0.000000
										}
									}
								}
								JOINT LThumb
								{
									OFFSET 0.000000 0.000000 0.000000
									CHANNELS 3 Zrotation Yrotation Xrotation
									End Site
									{
										OFFSET 0.000000 0.000000 0.000000
									}
								}
							}
						}
					}
				}
				JOINT RightShoulder
				{
					OFFSET 0.000000 0.000000 0.000000
					CHANNELS 3 Zrotation Yrotation Xrotation
					JOINT RightArm
					{
						OFFSET -3.136600 1.374050 -0.404650
						CHANNELS 3 Zrotation Yrotation Xrotation
						JOINT RightForeArm
						{
							OFFSET -5.241900 -0.000000 -0.000000
							CHANNELS 3 Zrotation Yrotation Xrotation
							JOINT RightHand
							{
								OFFSET -3.444170 -0.000000 -0.000000
								CHANNELS 3 Zrotation Yrotation Xrotation
								JOINT RightFingerBase
								{
									OFFSET 0.000000 0.000000 0.000000
									CHANNELS 3 Zrotation Yrotation Xrotation
									JOINT RightHandIndex1
									{
										OFFSET -0.622530 -0.000000 -0.000000
										CHANNELS 3 Zrotation Yrotation Xrotation
										End Site
										{
											OFFSET 0.000000 0.000000 0.000000
										}
									}
								}
								JOINT RThumb
								{
									OFFSET 0.000000 0.000000 0.000000
									CHANNELS 3 Zrotation Yrotation Xrotation
									End Site
									{
										OFFSET 0.000000 0.000000 0.000000
									}
								}
							}
						}
					}
				}
			}
		}
	}
}
}
MOTION
Frames: 18
Frame Time: 0.008333
0.781623 17.305586 -1.631873 172.184446 -76.002912 -160.103293 6.484352 -0.331016 1.555720 0.410023 -0.730480 -2.944154 -6.543088 -0.843386 -0.975527 7.169330 0.228518 -0.242441 -4.854720 -0.409413 1.842419 0.000000 0.000000 0.000000 -4.285586 -3.728612 1.625708 -72.171501 -4.950502 11.556125 -2.563306 -27.106748 -0.000748 4.637719 -4.380713 -0.182190 -0.055966 0.074867 0.000000 0.000000 0.000000 0.000000 0.000000 0.000000 0.000000 17.996264 0.546617 0.662273 72.762251 14.523800 7.420819 3.375441 18.452555 0.013532 -0.173365 10.536400 -0.022060 0.070124 -0.118828 0.000000 0.000000 0.000000 0.000000 0.000000 0.000000 0.000000 
0.794297 17.304071 -1.643880 171.613462 -75.912076 -159.737221 6.547237 -0.355178 1.634797 0.428977 -0.753936 -2.921644 -6.508847 -0.865294 -0.968535 7.139676 0.147245 -0.265300 -4.854574 -0.408989 1.835382 0.000000 0.000000 0.000000 -4.299103 -3.724346 1.614785 -72.248532 -4.975313 11.312638 -2.553252 -27.184759 -0.000858 4.641507 -4.393732 -0.182892 -0.055373 0.075746 0.000000 0.000000 0.000000 0.000000 0.000000 0.000000 0.000000 17.980226 0.452389 0.663890 72.520787 14.524738 7.506490 3.373925 18.598287 0.013500 -0.201219 10.491001 -0.024561 0.070561 -0.118331 0.000000 0.000000 0.000000 0.000000 0.000000 0.000000 0.000000 
0.807709 17.302650 -1.654843 171.028409 -75.826889 -159.368960 6.604784 -0.378692 1.732438 0.446303 -0.775293 -2.896791 -6.476568 -0.885253 -0.966392 7.120649 0.075326 -0.284076 -4.856143 -0.408665 1.829165 0.000000 0.000000 0.000000 -4.315575 -3.734492 1.605706 -72.323042 -5.000839 11.050698 -2.541718 -27.282877 -0.000993 4.652578 -4.410739 -0.183993 -0.054696 0.076740 0.000000 0.000000 0.000000 0.000000 0.000000 0.000000 0.000000 17.983015 0.366076 0.669783 72.245791 14.515919 7.576093 3.371320 18.755928 0.013438 -0.230833 10.433236 -0.027263 0.070934 -0.117799 0.000000 0.000000 0.000000 0.000000 0.000000 0.000000 0.000000 
0.821795 17.301498 -1.664970 170.416360 -75.741753 -158.982229 6.650274 -0.401147 1.844889 0.460652 -0.793990 -2.869300 -6.446441 -0.902622 -0.965088 7.113384 0.005630 -0.302102 -4.859614 -0.408435 1.822827 0.000000 0.000000 0.000000 -4.331615 -3.746180 1.596628 -72.395163 -5.039025 10.781079 -2.529344 -27.391256 -0.001143 4.675059 -4.435357 -0.185896 -0.054010 0.077820 0.000000 0.000000 0.000000 0.000000 0.000000 0.000000 0.000000 18.007540 0.279981 0.678546 71.939071 14.512762 7.650374 3.368114 18.902670 0.013363 -0.274780 10.380694 -0.031165 0.071374 -0.117246 0.000000 0.000000 0.000000 0.000000 0.000000 0.000000 0.000000 
0.836369 17.300670 -1.674444 169.770014 -75.652908 -158.566345 6.679873 -0.422278 1.967840 0.471236 -0.809784 -2.840594 -6.418640 -0.917233 -0.966512 7.118448 -0.052810 -0.315166 -4.864837 -0.408333 1.817571 0.000000 0.000000 0.000000 -4.344897 -3.764185 1.587924 -72.464638 -5.077835 10.498697 -2.515980 -27.515043 -0.001312 4.710353 -4.467233 -0.188697 -0.053308 0.078945 0.000000 0.000000 0.000000 0.000000 0.000000 0.000000 0.000000 18.052542 0.203031 0.690042 71.605815 14.504359 7.695706 3.364670 19.037146 0.013276 -0.323747 10.330069 -0.035466 0.071793 -0.116677 0.000000 0.000000 0.000000 0.000000 0.000000 0.000000 0.000000 
0.851298 17.300356 -1.683434 169.079975 -75.555712 -158.106253 6.688569 -0.441854 2.095196 0.477080 -0.822559 -2.810978 -6.393155 -0.928901 -0.967099 7.135758 -0.107248 -0.326008 -4.871933 -0.408358 1.812681 0.000000 0.000000 0.000000 -4.353154 -3.779302 1.577863 -72.531973 -5.123353 10.211617 -2.502061 -27.648366 -0.001492 4.760710 -4.508099 -0.192399 -0.052643 0.080080 0.000000 0.000000 0.000000 0.000000 0.000000 0.000000 0.000000 18.119251 0.127275 0.702976 71.249258 14.503785 7.725161 3.361586 19.142189 0.013193 -0.384644 10.290072 -0.040968 0.072283 -0.116080 0.000000 0.000000 0.000000 0.000000 0.000000 0.000000 0.000000 
0.866430 17.300579 -1.692156 168.326175 -75.448716 -157.582142 6.669721 -0.460799 2.226122 0.476943 -0.832873 -2.781497 -6.369894 -0.938278 -0.969775 7.165594 -0.148205 -0.329738 -4.880554 -0.408534 1.809541 0.000000 0.000000 0.000000 -4.352685 -3.801150 1.567437 -72.597550 -5.159683 9.911678 -2.487588 -27.798788 -0.001685 4.824245 -4.555089 -0.197001 -0.052000 0.081191 0.000000 0.000000 0.000000 0.000000 0.000000 0.000000 0.000000 18.205258 0.061845 0.717539 70.876793 14.497409 7.700494 3.359077 19.220543 0.013106 -0.444393 10.253501 -0.046272 0.072721 -0.115460 0.000000 0.000000 0.000000 0.000000 0.000000 0.000000 0.000000 
0.881675 17.301424 -1.700676 167.519044 -75.329818 -156.997988 6.625318 -0.478632 2.352849 0.471394 -0.840891 -2.752761 -6.348089 -0.945445 -0.971060 7.205169 -0.181900 -0.329404 -4.889995 -0.408807 1.807408 0.000000 0.000000 0.000000 -4.342807 -3.819111 1.555017 -72.662441 -5.194752 9.611497 -2.473091 -27.957836 -0.001884 4.900399 -4.609424 -0.202503 -0.051437 0.082261 0.000000 0.000000 0.000000 0.000000 0.000000 0.000000 0.000000 18.304832 0.000735 0.732217 70.495688 14.496329 7.628765 3.358113 19.253818 0.013036 -0.507907 10.231145 -0.051975 0.073198 -0.114823 0.000000 0.000000 0.000000 0.000000 0.000000 0.000000 0.000000 
0.896781 17.302985 -1.709025 166.668124 -75.200500 -156.358702 6.557732 -0.495998 2.472231 0.461038 -0.847603 -2.725245 -6.327387 -0.951384 -0.970286 7.252445 -0.208667 -0.325298 -4.899767 -0.409146 1.806260 0.000000 0.000000 0.000000 -4.323324 -3.832238 1.540549 -72.727245 -5.226869 9.315565 -2.458830 -28.124588 -0.002080 4.985761 -4.669007 -0.208604 -0.050966 0.083280 0.000000 0.000000 0.000000 0.000000 0.000000 0.000000 0.000000 18.413430 -0.056618 0.746548 70.111578 14.500722 7.499837 3.359225 19.237697 0.012992 -0.571393 10.222309 -0.057676 0.073708 -0.114167 0.000000 0.000000 0.000000 0.000000 0.000000 0.000000 0.000000 
0.911932 17.305108 -1.717489 165.728541 -75.058115 -155.623838 6.454253 -0.514048 2.584777 0.443527 -0.853390 -2.699445 -6.307060 -0.956521 -0.969487 7.307342 -0.227250 -0.315428 -4.909303 -0.409550 1.806710 0.000000 0.000000 0.000000 -4.288438 -3.850768 1.524597 -72.791949 -5.244247 9.021502 -2.445250 -28.304825 -0.002270 5.074229 -4.729570 -0.215105 -0.050589 0.084222 0.000000 0.000000 0.000000 0.000000 0.000000 0.000000 0.000000 18.528551 -0.108653 0.761064 69.732141 14.506418 7.298390 3.362405 19.171303 0.012970 -0.628013 10.225460 -0.062880 0.074186 -0.113522 0.000000 0.000000 0.000000 0.000000 0.000000 0.000000 0.000000 
0.926809 17.307880 -1.725819 164.741892 -74.902309 -154.823939 6.326485 -0.531662 2.683923 0.421279 -0.858227 -2.675849 -6.286432 -0.960768 -0.965379 7.365322 -0.243280 -0.304233 -4.917896 -0.409941 1.807632 0.000000 0.000000 0.000000 -4.243720 -3.862329 1.506371 -72.856607 -5.258635 8.744830 -2.432734 -28.490023 -0.002445 5.161573 -4.790089 -0.221506 -0.050337 0.085108 0.000000 0.000000 0.000000 0.000000 0.000000 0.000000 0.000000 18.642778 -0.159792 0.774820 69.360701 14.520666 7.033435 3.368211 19.050736 0.012983 -0.680397 10.241406 -0.067784 0.074704 -0.112884 0.000000 0.000000 0.000000 0.000000 0.000000 0.000000 0.000000 
0.941649 17.311137 -1.734033 163.730655 -74.744526 -153.988927 6.183551 -0.550710 2.775285 0.396260 -0.864182 -2.653444 -6.265154 -0.966156 -0.958871 7.424690 -0.257403 -0.292017 -4.924919 -0.410265 1.808934 0.000000 0.000000 0.000000 -4.187799 -3.870254 1.486675 -72.921013 -5.270414 8.493002 -2.421536 -28.678744 -0.002601 5.241787 -4.847136 -0.227606 -0.050214 0.085965 0.000000 0.000000 0.000000 0.000000 0.000000 0.000000 0.000000 18.751021 -0.210702 0.787899 69.001485 14.541446 6.702840 3.376533 18.880150 0.013024 -0.726067 10.267142 -0.072186 0.075240 -0.112254 0.000000 0.000000 0.000000 0.000000 0.000000 0.000000 0.000000 
0.956465 17.314753 -1.742378 162.633238 -74.578329 -153.059122 6.007061 -0.572297 2.859811 0.364845 -0.871242 -2.632921 -6.243068 -0.972756 -0.952792 7.486977 -0.269531 -0.277248 -4.930476 -0.410562 1.811096 0.000000 0.000000 0.000000 -4.116875 -3.889551 1.466746 -72.982259 -5.264744 8.259108 -2.411992 -28.881226 -0.002730 5.307708 -4.896345 -0.232804 -0.050187 0.086761 0.000000 0.000000 0.000000 0.000000 0.000000 0.000000 0.000000 18.856093 -0.261121 0.801894 68.657187 14.563645 6.298596 3.386782 18.665322 0.013089 -0.759591 10.299325 -0.075489 0.075726 -0.111677 0.000000 0.000000 0.000000 0.000000 0.000000 0.000000 0.000000 
0.971273 17.318681 -1.750401 161.528022 -74.412006 -152.108743 5.822216 -0.595011 2.937970 0.332073 -0.879432 -2.613514 -6.219813 -0.980509 -0.944978 7.547327 -0.282875 -0.264401 -4.933918 -0.410736 1.812892 0.000000 0.000000 0.000000 -4.039673 -3.907044 1.446579 -73.038964 -5.259306 8.062844 -2.404087 -29.086971 -0.002830 5.356319 -4.936950 -0.236903 -0.050271 0.087559 0.000000 0.000000 0.000000 0.000000 0.000000 0.000000 0.000000 18.949949 -0.312372 0.816264 68.325385 14.590037 5.840281 3.398831 18.415471 0.013174 -0.786399 10.334369 -0.078193 0.076229 -0.111136 0.000000 0.000000 0.000000 0.000000 0.000000 0.000000 0.000000 
0.986127 17.322779 -1.757957 160.432155 -74.249098 -151.155402 5.635499 -0.618590 3.012936 0.299175 -0.888678 -2.594702 -6.195574 -0.989334 -0.935909 7.604799 -0.299514 -0.255041 -4.935352 -0.410774 1.813884 0.000000 0.000000 0.000000 -3.959607 -3.924083 1.426891 -73.088536 -5.256846 7.909021 -2.397745 -29.295858 -0.002902 5.384344 -4.967433 -0.239600 -0.050443 0.088380 0.000000 0.000000 0.000000 0.000000 0.000000 0.000000 0.000000 19.032372 -0.365789 0.831705 68.003345 14.620021 5.343395 3.412014 18.142114 0.013269 -0.809279 10.367474 -0.080597 0.076761 -0.110636 0.000000 0.000000 0.000000 0.000000 0.000000 0.000000 0.000000 
1.001254 17.326892 -1.765396 159.272106 -74.083729 -150.133039 5.425285 -0.644674 3.088264 0.261792 -0.899216 -2.577039 -6.170680 -0.999566 -0.930071 7.663234 -0.313517 -0.245586 -4.935241 -0.410748 1.815049 0.000000 0.000000 0.000000 -3.872326 -3.957464 1.409735 -73.126088 -5.241765 7.788603 -2.393248 -29.517971 -0.002941 5.388719 -4.986526 -0.240796 -0.050665 0.089189 0.000000 0.000000 0.000000 0.000000 0.000000 0.000000 0.000000 19.109615 -0.415499 0.849934 67.691111 14.640386 4.795104 3.425202 17.856458 0.013362 -0.821948 10.397086 -0.082101 0.077204 -0.110226 0.000000 0.000000 0.000000 0.000000 0.000000 0.000000 0.000000 
1.016702 17.330966 -1.772165 158.138325 -73.924335 -149.128048 5.220586 -0.670878 3.166572 0.225559 -0.910187 -2.558982 -6.145464 -1.010228 -0.924004 7.718817 -0.333177 -0.242426 -4.933796 -0.410591 1.814574 0.000000 0.000000 0.000000 -3.788666 -3.990583 1.394458 -73.149838 -5.236868 7.718220 -2.390093 -29.741613 -0.002954 5.372542 -4.996266 -0.240592 -0.050942 0.090049 0.000000 0.000000 0.000000 0.000000 0.000000 0.000000 0.000000 19.179150 -0.468262 0.870440 67.380008 14.661117 4.243323 3.437934 17.571570 0.013445 -0.837874 10.417961 -0.083704 0.077688 -0.109854 0.000000 0.000000 0.000000 0.000000 0.000000 0.000000 0.000000 
1.032414 17.334963 -1.778059 157.054273 -73.772349 -148.161182 5.029006 -0.695799 3.248862 0.191818 -0.920573 -2.540634 -6.120462 -1.020326 -0.919035 7.771115 -0.356128 -0.245080 -4.931394 -0.410324 1.812571 0.000000 0.000000 0.000000 -3.713821 -4.026555 1.381860 -73.156936 -5.240453 7.695103 -2.387633 -29.968918 -0.002948 5.338159 -4.998060 -0.239187 -0.051225 0.090956 0.000000 0.000000 0.000000 0.000000 0.000000 0.000000 0.000000 19.241814 -0.521107 0.894075 67.064337 14.676165 3.700867 3.449680 17.301153 0.013508 -0.859158 10.426206 -0.085808 0.078211 -0.109513 0.000000 0.000000 0.000000 0.000000 0.000000 0.000000 0.000000 
